<svg width="203" height="66" viewBox="0 0 203 66" fill="none" xmlns="http://www.w3.org/2000/svg">
<path d="M106.338 65.1321C105.502 64.7459 105.143 64.1586 105.143 63.1729C105.143 61.6307 106.405 60.801 108.757 60.7966L109.696 60.7948V60.3928C109.696 59.8542 109.431 59.2505 109.122 59.0851C108.698 58.8585 107.333 58.9888 106.664 59.3199L106.084 59.6072L105.781 59.0691L105.479 58.531L105.909 58.2373C106.543 57.804 107.658 57.4944 108.585 57.4944C109.606 57.4944 110.153 57.6614 110.719 58.1454C111.435 58.7585 111.517 59.2022 111.517 62.4657V65.2334H110.784H110.051L109.974 64.7213C109.887 64.1412 109.799 64.0917 109.544 64.4805C109.447 64.6297 109.098 64.8858 108.769 65.0495C108.031 65.4173 107.03 65.4513 106.339 65.1321L106.338 65.1321ZM108.877 63.7511C109.261 63.5172 109.689 62.7662 109.693 62.3183C109.696 62.119 109.608 62.0656 109.186 62.0078C108.419 61.9027 107.525 62.1042 107.22 62.451C106.893 62.823 106.88 63.4418 107.192 63.7539C107.502 64.0637 108.367 64.0623 108.877 63.751L108.877 63.7511ZM116.027 65.2208C115.406 65.0751 114.112 64.3739 113.732 63.9776C113.377 63.6062 113.354 63.6757 114.111 62.8283L114.379 62.5287L114.938 62.9049C116.938 64.2507 119.028 63.9514 119.028 62.3193C119.028 61.6374 118.432 61.1661 116.974 60.6948C115.53 60.228 114.988 59.968 114.507 59.5108C113.749 58.7904 113.597 57.3585 114.161 56.2535C114.462 55.6655 115.234 55.0768 115.994 54.8566C116.782 54.6285 118.301 54.6905 119.055 54.9815C119.72 55.238 120.751 55.8823 120.81 56.0778C120.827 56.137 120.65 56.4082 120.414 56.6803L119.987 57.1751L119.222 56.7548C118.348 56.2742 117.402 56.1229 116.706 56.3526C116.076 56.5607 115.842 56.8728 115.842 57.5057C115.842 57.9625 115.893 58.086 116.181 58.3289C116.368 58.4861 116.791 58.7126 117.12 58.8322C117.45 58.9519 118.122 59.1935 118.614 59.3692C120.084 59.8944 120.76 60.53 120.979 61.5915C121.311 63.2013 120.388 64.6946 118.762 65.1775C118.138 65.3626 116.726 65.385 116.027 65.2208ZM126.166 65.23C124.297 64.7597 123.113 63.0599 122.938 60.5953C122.709 57.3567 124.312 55.0425 127.013 54.7137C128.354 54.5505 129.833 55.0596 130.591 55.9453C131.018 56.4441 131.433 57.4343 131.433 57.9539V58.2911H130.466C129.568 58.2911 129.499 58.2744 129.499 58.0589C129.499 57.6625 129.052 56.927 128.669 56.6937C127.93 56.2428 126.409 56.4681 125.842 57.1124C125.003 58.0656 124.749 60.0417 125.241 61.7926C125.464 62.5877 126.173 63.3375 126.881 63.5278C127.865 63.7921 129.227 63.4564 130.165 62.718L130.465 62.482L130.947 63.0326C131.212 63.3354 131.429 63.6344 131.429 63.697C131.431 63.8914 130.157 64.7642 129.499 65.0199C128.789 65.2958 126.901 65.4148 126.166 65.23ZM94.7868 60.0715V54.8767L96.9207 54.8784C99.2812 54.8803 100.126 55.0127 101.076 55.5299C102.718 56.4234 103.531 58.4764 103.218 60.9409C103 62.6674 102.317 63.8529 101.188 64.4676C100.213 64.9982 99.4618 65.1309 97.0345 65.2012L94.7868 65.2664V60.0716V60.0715ZM99.7423 63.177C100.844 62.6253 101.358 61.4377 101.24 59.7136C101.16 58.5429 100.915 57.862 100.388 57.3474C99.7919 56.7659 99.1856 56.5838 97.8453 56.5838H96.7216V60.0697V63.5555L97.9556 63.5046C98.9694 63.4629 99.2883 63.4044 99.7423 63.177V63.177ZM133.596 60.055V54.8767H134.563H135.531V56.9822V59.0877H137.693H139.855V56.9822V54.8767H140.823H141.79V60.055V65.2334H140.823H139.855V63.0141V60.7948H137.693H135.531V63.0141V65.2334H134.563H133.596V60.055ZM11.1865 54.2792L10.8522 53.9093L11.2221 54.2436C11.5669 54.5552 11.6443 54.6491 11.5564 54.6491C11.5368 54.6491 11.3703 54.4826 11.1865 54.2792ZM96.0893 47.2437C95.8981 47.1881 95.6164 47.0095 95.4634 46.8467C95.1861 46.5517 95.185 46.5412 95.151 43.7713L95.1169 40.9919H94.6104H94.1039V40.4364V39.8809L94.6062 39.7544L95.1086 39.6279L95.182 38.745C95.2223 38.2595 95.2657 37.7854 95.2784 37.6915C95.2959 37.5611 95.4964 37.5128 96.1252 37.4873L96.9491 37.4539V38.54V39.6262H97.632H98.3149V40.3091V40.9919H97.6297H96.9446L96.9754 43.4104L97.0061 45.8288L97.6486 45.8626C98.349 45.8994 98.4238 45.9853 98.4271 46.7561C98.4285 47.1071 98.4137 47.1168 97.708 47.2398C96.8795 47.3841 96.5749 47.3848 96.0893 47.2437L96.0893 47.2437ZM112.011 47.2468C110.963 47.0394 110.134 46.3755 109.673 45.3736C109.446 44.8801 109.411 44.6234 109.411 43.4389C109.411 42.2793 109.448 41.9928 109.657 41.541C110.387 39.9625 112.065 39.1418 113.818 39.5059C114.514 39.6504 115.446 40.2341 115.316 40.4444C115.268 40.5229 115.289 40.5401 115.371 40.4891C115.459 40.4349 115.611 40.635 115.811 41.0691C116.059 41.6063 116.125 41.9418 116.163 42.8414L116.21 43.951H113.749C111.352 43.951 111.289 43.9569 111.289 44.1823C111.289 44.5479 111.574 45.1206 111.909 45.4301C112.171 45.6721 112.348 45.7201 113.102 45.7544C113.848 45.7882 114.101 45.7486 114.71 45.5027C115.107 45.3422 115.436 45.2219 115.44 45.2353C115.444 45.2488 115.562 45.5045 115.702 45.8035C115.841 46.1025 115.955 46.374 115.955 46.407C115.955 46.5364 114.497 47.1395 113.919 47.2491C113.22 47.3817 112.69 47.3811 112.011 47.2467L112.011 47.2468ZM114.428 42.216C114.264 41.1895 113.598 40.6625 112.683 40.8342C112.153 40.9336 111.549 41.4838 111.406 41.9972C111.204 42.7276 111.143 42.6991 112.897 42.6991H114.505L114.428 42.216ZM134.449 47.2013C133.878 46.9903 133.308 46.3811 133.15 45.8112C133.078 45.5545 133.028 44.1856 133.028 42.4999L133.027 39.6262H133.937H134.848V42.1906C134.848 44.944 134.922 45.3935 135.424 45.6619C135.853 45.8916 136.733 45.7377 137.214 45.349L137.636 45.0073L137.667 42.3168L137.697 39.6262H138.606H139.514V43.3872V47.1481L138.746 47.1144C138.022 47.0827 137.976 47.0644 137.944 46.7963C137.875 46.2197 137.826 46.1911 137.45 46.5073C136.562 47.2545 135.352 47.5343 134.45 47.2013L134.449 47.2013ZM156.227 47.1935C155.263 46.8841 154.638 45.7573 154.867 44.7411C155.162 43.4346 156.286 42.7967 158.293 42.7967H159.317V42.1852C159.317 41.7024 159.259 41.5065 159.042 41.2544C158.785 40.9567 158.71 40.9356 157.932 40.9433C157.162 40.951 156.757 41.0674 155.883 41.5334C155.841 41.5558 155.665 41.3338 155.493 41.04C155.187 40.5181 155.185 40.502 155.399 40.3378C155.519 40.2454 155.874 40.0538 156.187 39.912C157.834 39.1662 159.578 39.2921 160.543 40.2264C161.163 40.8259 161.252 41.3529 161.252 44.4269V47.1377H160.514C159.802 47.1377 159.774 47.1269 159.708 46.8247C159.566 46.176 159.557 46.1712 159.171 46.5371C158.97 46.7282 158.64 46.9678 158.438 47.0695C157.905 47.3377 156.86 47.3963 156.227 47.1935H156.227ZM158.493 45.7726C158.981 45.4752 159.316 44.9074 159.316 44.3778V43.951L158.605 43.9517C157.697 43.9525 157.093 44.1212 156.873 44.4361C156.692 44.6941 156.64 45.3958 156.786 45.611C157.074 46.036 157.928 46.1169 158.492 45.7726L158.493 45.7726ZM178.896 47.2166C178.671 47.139 178.39 46.915 178.242 46.6941C177.989 46.3188 177.982 46.229 177.982 43.6497V40.992H177.463H176.945L176.98 40.4603C177.013 39.9482 177.032 39.9228 177.484 39.7726C177.897 39.6353 177.962 39.5664 178.023 39.1947C178.061 38.9626 178.094 38.5934 178.096 38.3744C178.101 37.5121 178.151 37.4639 179.019 37.4639H179.803V38.5451V39.6263H180.485H181.168V40.3091V40.992H180.485H179.803V43.2589C179.803 44.5056 179.834 45.6068 179.872 45.7058C179.923 45.8388 180.099 45.8858 180.548 45.8858C180.882 45.8858 181.178 45.9242 181.207 45.9712C181.235 46.0181 181.277 46.287 181.299 46.5687L181.339 47.0808L180.713 47.2121C179.899 47.3829 179.383 47.3842 178.896 47.2167L178.896 47.2166ZM190.055 47.1845C189.715 47.0933 189.266 46.9126 189.056 46.7829C187.168 45.6155 187.037 41.7818 188.834 40.2437C189.922 39.3127 191.905 39.1641 193.079 39.9257C193.945 40.4869 194.351 41.3834 194.453 42.9552L194.518 43.951H191.988H189.458L189.538 44.3209C189.766 45.3808 190.288 45.7722 191.468 45.7689C192.049 45.7672 192.448 45.6911 192.942 45.4883C193.314 45.3353 193.628 45.2212 193.639 45.2349C193.65 45.2486 193.792 45.522 193.952 45.8423L194.245 46.4249L193.7 46.7214C192.608 47.316 191.206 47.4941 190.055 47.1845H190.055ZM192.635 42.1886C192.561 41.532 192.292 41.1294 191.786 40.918C190.891 40.5439 189.947 41.0418 189.649 42.0455C189.554 42.3651 189.476 42.6429 189.476 42.6629C189.476 42.6828 190.2 42.6991 191.085 42.6991H192.693L192.635 42.1886ZM198.41 47.2115C197.81 47.0553 196.881 46.6038 196.442 46.255L196.18 46.0471L196.582 45.5206L196.984 44.9942L197.783 45.4043C198.818 45.9351 199.733 46.0322 200.203 45.661C200.585 45.3599 200.621 44.8547 200.285 44.541C200.157 44.4224 199.607 44.1899 199.061 44.0242C197.686 43.6068 197.212 43.3167 196.902 42.703C196.333 41.5743 196.785 40.3022 197.95 39.7545C199.207 39.1634 201.081 39.4258 202.267 40.359C202.5 40.5422 202.479 40.6001 201.91 41.3111L201.701 41.5734L201.04 41.2258C200.509 40.9465 200.24 40.8782 199.673 40.8782C198.929 40.8782 198.65 41.0059 198.534 41.4009C198.399 41.8574 198.835 42.1987 200.034 42.5751C201.318 42.9781 202.046 43.3825 202.267 43.8156C202.734 44.729 202.566 45.7768 201.837 46.5045C201.11 47.2309 199.646 47.5329 198.41 47.2115V47.2115ZM18.5198 47.0523C18.3783 46.8718 18.3823 46.8678 18.5628 47.0093C18.6723 47.0952 18.762 47.1849 18.762 47.2085C18.762 47.3022 18.6685 47.2419 18.5198 47.0523L18.5198 47.0523ZM100.477 41.9593V36.781H101.388H102.298V38.6677V40.5544L102.754 40.1644C103.221 39.7643 104.14 39.3981 104.673 39.3992C105.261 39.4005 105.884 39.6575 106.295 40.0681C106.524 40.2973 106.768 40.6886 106.837 40.9376C106.914 41.2125 106.963 42.5185 106.964 44.264L106.965 47.1377H106.055H105.144V44.5733C105.144 42.5893 105.107 41.9194 104.979 41.6135C104.636 40.7935 103.441 40.784 102.555 41.5941C102.303 41.8241 102.299 41.8752 102.299 44.483V47.1377H101.388H100.478V41.9593H100.477ZM121.987 41.9593V36.781H122.955H123.922V38.9434V41.1057H126.141H128.361V38.9434V36.781H129.328H130.295V41.9593V47.1377H129.328H128.361V44.9753V42.8129H126.141H123.922V44.9753V47.1377H122.955H121.987V41.9593ZM142.132 43.3819V39.6262H142.927H143.722L143.795 40.0815C143.835 40.3318 143.904 40.5367 143.947 40.5367C143.991 40.5367 144.151 40.4037 144.303 40.2411C145.246 39.2302 146.858 39.1605 147.719 40.0934C148.113 40.5204 148.135 40.5288 148.319 40.3257C148.424 40.2098 148.777 39.9693 149.105 39.7913C149.579 39.533 149.849 39.4664 150.439 39.4616C151.363 39.454 151.862 39.7188 152.261 40.4287C152.542 40.9291 152.546 40.9714 152.582 44.0363L152.618 47.1377H151.643H150.667V44.3441V41.5506L150.374 41.2575C150.126 41.0098 150.01 40.9738 149.621 41.026C149.353 41.0619 148.988 41.2272 148.747 41.4221L148.334 41.7566L148.304 44.4471L148.273 47.1377H147.37H146.467L146.433 44.2822L146.399 41.4267L146.117 41.1979C145.746 40.8984 145.119 40.9759 144.513 41.396L144.066 41.7057V44.4217V47.1377H143.099H142.132L142.132 43.3819ZM163.869 43.3819V39.6262H164.666C165.433 39.6262 165.463 39.6366 165.463 39.9014C165.463 40.5201 165.564 40.5563 166.117 40.1345C166.641 39.7344 167.535 39.3981 168.072 39.3992C168.946 39.4011 169.733 39.8884 170.161 40.6933C170.397 41.1358 170.413 41.3333 170.45 44.1501L170.49 47.1377H169.513H168.535V44.4916C168.535 42.0695 168.516 41.8147 168.313 41.4818C167.927 40.848 167.006 40.8368 166.152 41.4555L165.691 41.79V44.4638V47.1377H164.78H163.87V43.3819H163.869ZM173.088 43.3819V39.6262H173.998H174.909V43.3819V47.1377H173.998H173.088V43.3819ZM183.331 43.3819V39.6262H184.241H185.152V43.3819V47.1377H184.241H183.331V43.3819ZM66.4482 43.1113C66.4482 43.0877 66.5378 42.9981 66.6474 42.9122C66.8279 42.7706 66.8319 42.7746 66.6903 42.9552C66.5417 43.1447 66.4482 43.205 66.4482 43.1113V43.1113ZM61.2699 40.0815C61.5144 39.8311 61.74 39.6262 61.7713 39.6262C61.8026 39.6262 61.6282 39.8311 61.3837 40.0815C61.1392 40.3318 60.9135 40.5367 60.8822 40.5367C60.8509 40.5367 61.0254 40.3318 61.2699 40.0815ZM173.714 38.5215C172.98 38.3405 172.734 37.466 173.267 36.9328C173.525 36.6745 173.629 36.6464 174.142 36.6957C174.822 36.7611 175.136 37.056 175.136 37.6273C175.136 38.2327 174.406 38.6921 173.714 38.5215ZM183.957 38.5229C183.118 38.3111 182.939 37.2169 183.68 36.8337C184.138 36.5968 184.727 36.626 185.079 36.903C185.474 37.2137 185.5 37.9111 185.13 38.2561C184.993 38.3837 184.827 38.4888 184.76 38.4897C184.694 38.4906 184.537 38.5113 184.412 38.5358C184.287 38.5603 184.082 38.5545 183.957 38.5229V38.5229ZM98.0041 29.9533C95.7513 29.4757 94.45 27.5382 94.449 24.6602C94.4479 22.3214 95.4277 20.5375 97.1569 19.7283C97.7328 19.4588 97.9384 19.426 99.0546 19.4255C100.119 19.4251 100.393 19.4643 100.887 19.6877C101.942 20.1655 102.745 21.2353 102.934 22.4173L103.01 22.8962H102.042H101.073L100.951 22.4101C100.594 20.9934 98.6578 20.6172 97.4793 21.7357C96.7711 22.4079 96.4156 23.6861 96.5292 25.1515C96.696 27.3028 97.5297 28.2386 99.2823 28.2416C100.131 28.2431 100.892 27.9751 101.646 27.4084L102.014 27.1318L102.511 27.7461C102.916 28.2474 102.982 28.391 102.87 28.5264C102.618 28.8301 101.567 29.4617 100.908 29.7056C100.165 29.9805 98.7158 30.1041 98.0042 29.9533H98.0041ZM107.459 29.9476C105.793 29.6181 104.798 28.2393 104.791 26.25C104.785 24.7758 105.105 23.8703 105.902 23.1009C106.456 22.5659 107.203 22.2363 108.044 22.1546C109.544 22.0089 110.634 22.5533 111.229 23.7442C111.519 24.3251 111.574 24.5805 111.612 25.5367L111.657 26.6519H109.197C106.8 26.6519 106.737 26.6578 106.737 26.8831C106.737 27.2491 107.021 27.8216 107.358 28.1314C107.641 28.3929 107.75 28.4154 108.709 28.4097C109.526 28.4049 109.87 28.3502 110.293 28.1576L110.834 27.9118L111.119 28.473C111.275 28.7817 111.403 29.0643 111.403 29.101C111.403 29.2505 109.909 29.8529 109.285 29.9551C108.516 30.081 108.125 30.0794 107.459 29.9476L107.459 29.9476ZM109.863 24.9163C109.745 24.2027 109.501 23.8087 109.066 23.6269C108.542 23.4082 108.261 23.423 107.69 23.6996C107.186 23.9435 106.737 24.628 106.737 25.1514C106.737 25.3952 106.768 25.4 108.34 25.4H109.943L109.863 24.9163ZM124.564 29.9543C124.385 29.8979 124.135 29.7591 124.008 29.6459C123.526 29.2167 123.467 28.8411 123.467 26.2003V23.6928H122.948H122.43L122.465 23.1668C122.498 22.6572 122.515 22.635 123.011 22.4527C123.292 22.3491 123.532 22.1889 123.544 22.0966C123.557 22.0043 123.6 21.5319 123.641 21.0467L123.714 20.1647H124.501H125.288V21.2459V22.3271H125.971H126.654V23.01V23.6928H125.971H125.288V25.8478C125.288 27.033 125.34 28.1388 125.403 28.3052C125.511 28.5894 125.555 28.6052 126.143 28.5686C126.716 28.5329 126.768 28.5496 126.767 28.7716C126.767 28.9046 126.799 29.1724 126.838 29.3667C126.898 29.668 126.868 29.7353 126.633 29.8246C126.204 29.9879 124.925 30.0681 124.564 29.9543L124.564 29.9543ZM131.117 29.9453C130.432 29.8102 129.551 29.3028 129.198 28.8394C128.636 28.103 128.434 27.3893 128.435 26.1398C128.435 25.2419 128.488 24.8676 128.684 24.3667C129.02 23.504 129.602 22.8589 130.384 22.4816C130.934 22.2161 131.186 22.1663 132.003 22.1618C132.84 22.1572 133.058 22.1996 133.625 22.478C134.716 23.0141 135.161 23.8575 135.27 25.5992L135.336 26.6519H132.814H130.291L130.363 26.9649C130.509 27.6082 130.811 28.0763 131.206 28.2735C131.805 28.5726 132.921 28.5345 133.767 28.1862C134.142 28.0314 134.461 27.9046 134.476 27.9043C134.491 27.904 134.636 28.1669 134.799 28.4885C135.125 29.1329 135.143 29.0924 134.352 29.51C133.847 29.7764 132.587 30.0671 132.003 30.0517C131.783 30.046 131.385 29.9981 131.117 29.9453L131.117 29.9453ZM133.482 24.996C133.482 24.5336 133.274 24.0768 132.917 23.7536C132.561 23.4311 131.599 23.4454 131.129 23.78C130.735 24.0609 130.409 24.66 130.409 25.1042V25.4H131.946H133.482V24.996ZM154.651 29.8906C152.883 29.3974 152.076 28.0903 152.166 25.8643C152.202 24.9505 152.263 24.6581 152.526 24.1199C153.165 22.8141 154.316 22.1579 155.965 22.1589C156.769 22.1593 156.973 22.2049 157.637 22.5318C158.485 22.9492 158.998 23.5057 159.315 24.3506C159.96 26.0712 159.556 28.0703 158.349 29.1328C157.45 29.9241 155.905 30.2406 154.651 29.8906ZM156.699 28.2735C157.327 27.9597 157.61 27.2786 157.607 26.0872C157.603 24.4342 157.058 23.6937 155.846 23.6937C154.627 23.6937 154.139 24.3773 154.139 26.0829C154.139 26.9524 154.184 27.2511 154.372 27.6089C154.791 28.4072 155.835 28.7054 156.699 28.2735ZM114.021 26.0829V22.3272H114.817H115.614V22.7065C115.614 22.9152 115.644 23.1161 115.681 23.1531C115.718 23.1901 115.976 23.0463 116.255 22.8336C116.768 22.4421 117.689 22.099 118.224 22.1002C119.131 22.1022 119.939 22.6251 120.326 23.4615C120.545 23.9353 120.568 24.2166 120.602 26.908L120.639 29.8386H119.663H118.687V27.2153C118.687 24.4366 118.628 24.0797 118.124 23.81C117.603 23.5313 116.695 23.7485 116.098 24.2951C115.846 24.5251 115.842 24.5761 115.842 27.1839V29.8386H114.931H114.021L114.021 26.0829ZM137.579 26.0829V22.3272H138.376H139.173L139.174 22.697C139.177 23.2997 139.316 23.3839 139.607 22.9589C139.983 22.4112 140.724 22.0451 141.256 22.1449C141.651 22.2189 141.676 22.2491 141.675 22.6453C141.674 22.8772 141.641 23.2644 141.601 23.5059C141.532 23.9252 141.512 23.9422 141.165 23.8858C140.719 23.8134 139.958 24.1334 139.699 24.5025C139.541 24.7286 139.514 25.1422 139.514 27.3032V29.8386H138.546H137.579V26.0829H137.579ZM147.481 26.7657V23.6929H147.025H146.57V23.1252V22.5575L147.025 22.4847L147.481 22.4119L147.483 21.6582C147.489 20.2329 148.099 19.4771 149.319 19.3889C149.681 19.3627 150.158 19.3753 150.379 19.4167C150.775 19.4911 150.781 19.5007 150.781 20.0561V20.62H150.226C149.527 20.62 149.386 20.7809 149.323 21.6539L149.274 22.3271H149.971H150.668V23.01V23.6929H149.985H149.302V26.7657V29.8386H148.391H147.481L147.481 26.7657ZM161.934 26.0829V22.3272H162.662C163.432 22.3272 163.528 22.3955 163.528 22.9434C163.528 23.3731 163.657 23.3641 163.985 22.9116C164.381 22.3646 165.013 22.0523 165.549 22.1391C165.767 22.1746 165.969 22.2265 165.997 22.2544C166.025 22.2823 166.011 22.6718 165.967 23.12L165.887 23.9348L165.533 23.9111C164.864 23.8664 164.673 23.9212 164.271 24.2737L163.869 24.6269V27.2327V29.8386H162.902H161.934V26.0829ZM16.0305 25.1294C16.0305 25.1058 16.1202 25.0162 16.2297 24.9303C16.4102 24.7887 16.4142 24.7927 16.2727 24.9732C16.124 25.1628 16.0305 25.2231 16.0305 25.1294L16.0305 25.1294ZM53.9146 22.5832C53.7731 22.4027 53.7771 22.3987 53.9576 22.5403C54.1472 22.6889 54.2075 22.7824 54.1138 22.7824C54.0902 22.7824 54.0005 22.6928 53.9146 22.5832V22.5832ZM11.1367 21.815C11.54 21.4081 11.8955 21.0752 11.9268 21.0752C11.9581 21.0752 11.6538 21.4081 11.2505 21.815C10.8473 22.2219 10.4917 22.5548 10.4604 22.5548C10.4292 22.5548 10.7335 22.2219 11.1367 21.815ZM7.03958 19.4389C7.03958 19.4153 7.1292 19.3257 7.23875 19.2398C7.41926 19.0982 7.42328 19.1022 7.28172 19.2828C7.13305 19.4723 7.03959 19.5326 7.03959 19.4389L7.03958 19.4389ZM58.1916 18.6568L57.7418 18.1731L58.2255 18.623C58.4915 18.8704 58.7091 19.0881 58.7091 19.1067C58.7091 19.1928 58.61 19.1066 58.1916 18.6568ZM106.891 12.6647C105.539 12.3189 104.889 10.9155 105.479 9.61595C105.918 8.64784 107.031 8.16447 108.814 8.1669L109.81 8.16824V7.6737C109.81 7.03242 109.566 6.57592 109.128 6.39438C108.619 6.18332 107.561 6.31098 106.847 6.66968C106.518 6.83446 106.239 6.95502 106.226 6.9376C106.212 6.92018 106.065 6.66948 105.898 6.38047L105.595 5.85499L106.365 5.45316C108.577 4.29903 111.041 4.78899 111.51 6.47604C111.578 6.72241 111.63 8.10843 111.63 9.72273L111.631 12.5395H110.901H110.172L110.095 12.0843C110.052 11.8339 109.98 11.629 109.934 11.629C109.888 11.629 109.726 11.7621 109.574 11.9246C108.99 12.5503 107.766 12.8882 106.892 12.6647L106.891 12.6647ZM108.854 11.1842C109.362 10.9536 109.81 10.2389 109.81 9.65835C109.81 9.35885 109.795 9.35286 109.084 9.35286C108.135 9.35286 107.715 9.44351 107.429 9.71008C106.942 10.1633 106.999 10.9837 107.535 11.2551C107.927 11.4532 108.307 11.4328 108.854 11.1842H108.854ZM115.504 12.6238C115.284 12.5449 114.995 12.312 114.85 12.0959C114.597 11.7206 114.59 11.6308 114.59 9.0515V6.39381H114.078H113.565V5.83955V5.28529L114.07 5.14406L114.574 5.00282L114.643 4.24724C114.682 3.83167 114.739 3.32522 114.77 3.12178L114.827 2.7519H115.619H116.411V3.88999V5.02809H117.093H117.776V5.71095V6.39381H117.093H116.411L116.412 8.69845C116.413 9.96601 116.458 11.0725 116.511 11.1573C116.579 11.2639 116.789 11.299 117.193 11.2711C117.765 11.2315 117.777 11.2376 117.831 11.5721C117.967 12.4294 117.961 12.4603 117.629 12.5502C116.974 12.7275 115.898 12.7648 115.504 12.6238L115.504 12.6238ZM121.06 12.5948C119.264 12.0203 119.128 9.48514 120.848 8.6139C121.501 8.28271 122.943 8.04778 123.661 8.15547L124.15 8.2287V7.60213C124.15 7.10361 124.093 6.91029 123.875 6.65623C123.62 6.35979 123.54 6.33709 122.765 6.33943C122.103 6.34145 121.795 6.40489 121.277 6.64571L120.623 6.94946L120.329 6.44742C120.167 6.1713 120.068 5.89166 120.109 5.826C120.231 5.62785 121.259 5.15095 121.952 4.97024C123.652 4.52749 125.136 5.00844 125.775 6.20896C126.01 6.65058 126.027 6.85192 126.065 9.61436L126.104 12.5504L125.329 12.5165L124.554 12.4826L124.459 11.9981L124.364 11.5136L123.988 11.912C123.31 12.6302 122.073 12.9188 121.06 12.5948L121.06 12.5948ZM123.42 11.121C123.837 10.8476 124.149 10.2693 124.149 9.76796V9.3295L123.19 9.36963C122.441 9.40099 122.162 9.46118 121.916 9.64508C121.323 10.0875 121.353 11.0415 121.967 11.2778C122.365 11.4311 123.06 11.356 123.419 11.121L123.42 11.121ZM134.563 12.6896C133.556 12.4635 132.702 11.8181 132.329 11.0031C132.019 10.324 132.045 9.11234 132.385 8.38548C132.621 7.88128 133.559 6.85506 133.793 6.84543C133.841 6.84341 133.973 6.77136 134.087 6.68527C134.282 6.53734 134.271 6.49986 133.892 6.00343C133.221 5.12372 133.175 3.88603 133.785 3.1173C134.816 1.81734 137.258 1.78382 138.228 3.05629C138.582 3.52031 138.704 4.43541 138.496 5.06544C138.349 5.51058 137.605 6.31587 137.098 6.578L136.774 6.74561L137.304 7.36638C137.596 7.7078 137.884 7.98715 137.945 7.98715C138.006 7.98715 138.367 7.70547 138.747 7.36119C139.128 7.01692 139.471 6.73524 139.51 6.73524C139.549 6.73524 139.804 6.96255 140.076 7.24039L140.572 7.74553L139.914 8.35003C139.552 8.6825 139.212 8.9716 139.157 8.99246C138.929 9.08043 139.112 9.38063 140.042 10.4423L141.025 11.5648L140.412 12.1099L139.799 12.6549L139.185 12.0218L138.572 11.3887L138.161 11.7114C137.498 12.2322 137.199 12.3945 136.554 12.5862C135.98 12.7567 135.072 12.8039 134.563 12.6896L134.563 12.6896ZM136.41 11.1134C136.882 10.9165 137.579 10.4138 137.579 10.2712C137.579 10.1994 136.147 8.52454 135.294 7.5991C135.11 7.39993 134.271 8.08887 134.028 8.63837C133.749 9.26941 133.793 10.1272 134.129 10.5848C134.607 11.2373 135.576 11.4619 136.41 11.1134H136.41ZM136.566 5.39764C137.152 4.85157 137.277 4.22797 136.899 3.74773C136.689 3.48203 136.567 3.43476 136.091 3.43476C135.381 3.43476 135.074 3.70299 135.079 4.31678C135.083 4.74897 135.176 4.96773 135.588 5.51481C135.891 5.91823 136.026 5.90209 136.566 5.39764ZM149.104 12.5948C148.252 12.4098 147.186 11.8628 146.701 11.3616L146.347 10.9968L146.772 10.4648C147.005 10.1722 147.235 9.93036 147.282 9.92736C147.33 9.92441 147.579 10.0739 147.835 10.2596C148.358 10.6387 149.237 10.9937 149.943 11.1112C151.045 11.2944 151.919 10.6835 151.919 9.73108C151.919 8.92789 151.492 8.57755 149.87 8.05175C148.371 7.56544 147.77 7.24962 147.278 6.68953C146.545 5.85453 146.553 4.26422 147.295 3.2913C148.406 1.83391 151.195 1.64028 153.067 2.89047C153.437 3.13759 153.738 3.39956 153.735 3.47262C153.733 3.5457 153.539 3.82293 153.306 4.08871L152.881 4.57194L152.454 4.2818C151.208 3.43508 149.289 3.4049 148.85 4.22512C148.785 4.34554 148.732 4.63181 148.732 4.86127C148.732 5.53361 149.23 5.92267 150.747 6.43764C152.993 7.19982 153.801 7.88783 153.931 9.14657C154.114 10.9193 153.115 12.2373 151.299 12.6179C150.447 12.7966 150.011 12.792 149.104 12.5948L149.104 12.5948ZM158.763 12.6445C157.624 12.4208 156.798 11.7734 156.313 10.7244C156.111 10.2887 156.073 9.98942 156.073 8.84072C156.073 7.68115 156.11 7.39468 156.319 6.94287C157.09 5.27432 158.945 4.44683 160.748 4.96743C161.267 5.11759 161.54 5.28424 161.937 5.69361C162.596 6.37492 162.845 7.11521 162.845 8.39855V9.35286H160.383H157.921L157.988 9.76323C158.228 11.243 159.734 11.5894 161.939 10.6718C162.066 10.6188 162.183 10.7406 162.366 11.117C162.504 11.402 162.617 11.6841 162.617 11.744C162.617 11.9303 161.488 12.4356 160.697 12.6032C159.859 12.7808 159.496 12.7886 158.763 12.6445H158.763ZM161.09 7.61784C160.926 6.59752 160.257 6.04981 159.376 6.21513C158.657 6.35013 157.951 7.2198 157.951 7.9719C157.951 8.06201 158.436 8.10095 159.559 8.10095H161.167L161.09 7.61784ZM187.012 12.655C186.283 12.5009 185.679 12.1444 185.172 11.5679C184.515 10.8217 184.298 10.1144 184.3 8.72691C184.301 7.74301 184.341 7.5033 184.596 6.95767C185 6.09156 185.51 5.54577 186.236 5.20211C187.413 4.64559 189.014 4.71768 189.911 5.36758C190.402 5.72372 190.892 6.61159 190.995 7.33274L191.055 7.75953H190.291H189.526L189.359 7.28614C189.125 6.62495 188.696 6.33536 187.96 6.34309C186.786 6.35545 186.247 7.08594 186.238 8.6727C186.234 9.49051 186.277 9.72957 186.517 10.1957C186.914 10.9663 187.373 11.204 188.345 11.1415C188.845 11.1094 189.285 10.9964 189.676 10.8002L190.26 10.5069L190.593 11.0961L190.926 11.6854L190.529 11.9552C189.653 12.5501 188.037 12.8717 187.012 12.655H187.012ZM195.647 12.6526C194.976 12.5115 194.055 11.9896 193.734 11.5687C193.118 10.7607 192.95 10.1785 192.949 8.84065C192.948 7.72847 192.981 7.51831 193.244 6.9576C193.652 6.08618 194.158 5.54832 194.919 5.17547C195.471 4.90458 195.706 4.85845 196.533 4.85793C197.368 4.85736 197.591 4.90183 198.166 5.18421C199.243 5.71294 199.671 6.54604 199.797 8.35966L199.867 9.35818L197.391 9.34824C196.03 9.34272 194.892 9.36196 194.863 9.39095C194.777 9.47727 195.033 10.2993 195.236 10.5883C195.757 11.3293 197.247 11.3654 198.816 10.675C198.95 10.616 199.061 10.7404 199.267 11.1796L199.54 11.7625L199.26 11.9777C198.566 12.5103 196.663 12.866 195.647 12.6526V12.6526ZM197.983 7.57575C197.91 6.92783 197.603 6.49924 197.066 6.29488C196.087 5.92216 195.124 6.56091 194.901 7.73101L194.831 8.10089H196.436H198.042L197.983 7.57575ZM94.7868 7.36113V2.18279L96.6931 2.18682C99.669 2.19301 100.93 2.522 101.972 3.56369C102.974 4.5659 103.469 6.40264 103.232 8.23894C103.067 9.52151 102.732 10.3634 102.116 11.0488C101.094 12.1856 99.8495 12.5346 96.8069 12.5376L94.7868 12.5396V7.36113ZM99.9172 10.4691C100.92 9.87982 101.364 8.70662 101.244 6.96352C101.093 4.75703 100.072 3.88994 97.6264 3.88994H96.7216V7.37312V10.8563L98.0588 10.8159C99.2661 10.7794 99.4467 10.7456 99.9172 10.4691V10.4691ZM165.235 8.78375V5.02803H165.961C166.746 5.02803 166.822 5.09789 166.827 5.8247C166.83 6.08769 166.864 6.06894 167.286 5.57685C167.801 4.97576 168.346 4.73955 168.954 4.85359C169.333 4.92468 169.353 4.95057 169.288 5.27742C169.25 5.46888 169.218 5.84574 169.218 6.11489V6.60424L168.623 6.57415C168.068 6.54606 167.995 6.57449 167.542 6.99956L167.056 7.45507V9.99727V12.5395H166.145H165.235L165.235 8.78375ZM173.368 12.3972C173.277 12.1532 170.925 5.09071 170.925 5.05852C170.925 5.04176 171.352 5.02803 171.874 5.02803H172.823L173.623 7.78791C174.063 9.30585 174.462 10.5478 174.51 10.5478C174.559 10.5478 174.958 9.30585 175.398 7.78791L176.197 5.02803H177.09C177.727 5.02803 177.982 5.06858 177.982 5.17026C177.982 5.2485 177.44 6.93857 176.777 8.92598L175.573 12.5395H174.497C173.742 12.5395 173.406 12.4972 173.368 12.3972ZM180.03 8.78375V5.02803H180.941H181.851V8.78375V12.5395H180.941H180.03V8.78375ZM66.0391 11.942L65.8222 11.6859L66.0783 11.9027C66.2192 12.0219 66.3344 12.1372 66.3344 12.1588C66.3344 12.2498 66.2428 12.1826 66.0391 11.942ZM65.0148 10.9177L64.798 10.6616L65.054 10.8784C65.1949 10.9977 65.3101 11.1129 65.3101 11.1345C65.3101 11.2256 65.2185 11.1583 65.0148 10.9177ZM68.7099 8.12934C68.5683 7.94884 68.5723 7.94481 68.7528 8.08637C68.8624 8.17228 68.952 8.2619 68.952 8.28554C68.952 8.3792 68.8585 8.31891 68.7099 8.12934V8.12934ZM180.216 3.65406C179.813 3.33725 179.804 2.73996 180.196 2.34833C180.562 1.982 181.341 1.9606 181.779 2.30486C182.179 2.61993 182.198 3.28345 181.815 3.64248C181.459 3.97745 180.635 3.98341 180.216 3.65404L180.216 3.65406Z" fill="#888B8D"/>
<path d="M25.4767 65.6132C21.0563 65.1809 17.0007 63.8627 13.356 61.6737C10.7853 60.1297 7.96021 57.6741 6.12544 55.3888C-1.40199 46.0132 -2.05435 32.8211 4.51564 22.8354C6.02154 20.5466 7.54771 18.7923 9.48649 17.1215C12.9208 14.1618 17.2177 12.0028 21.6537 11.0078C24.7358 10.3166 24.2497 10.3387 37.3698 10.2928C49.5759 10.2501 50.6228 10.2762 52.5306 10.6703C55.8161 11.3489 59.3544 13.3278 61.6278 15.758C63.4383 17.6934 65.0669 20.4966 65.7574 22.8659C67.5064 28.8668 65.9393 35.2478 61.6169 39.7259C59.2897 42.137 56.5967 43.7717 53.5561 44.6191C51.2199 45.2701 51.4601 45.2598 38.6217 45.2598C27.396 45.2598 26.7503 45.2489 26.1027 45.0478C24.1327 44.4361 22.4726 43.0574 21.6255 41.3295C20.9386 39.9285 20.7727 39.1498 20.8384 37.6367C20.8802 36.6743 20.9593 36.2042 21.1787 35.6154C21.8607 33.7844 23.0799 32.378 24.6901 31.5649C26.5085 30.6467 25.549 30.7119 38.2803 30.6414L49.6613 30.5784L50.1165 30.3327C52.2535 29.1796 52.106 26.0492 49.8708 25.1153C49.2467 24.8545 26.973 24.86 25.5959 25.1213C24.5829 25.3135 22.9925 25.841 22.1668 26.2589C20.5015 27.1014 18.5089 28.7896 17.3368 30.3508C16.5779 31.3616 15.6239 33.3657 15.2801 34.6713C14.7381 36.7293 14.7375 39.2268 15.2783 41.2765C15.636 42.6321 16.5863 44.6036 17.4048 45.6881C19.047 47.8641 21.4131 49.5619 24.0005 50.4209C25.7545 51.0033 25.7251 51.0018 37.1991 51.0791C50.4511 51.1684 51.6579 51.11 54.9994 50.2183C58.8241 49.1976 62.3578 47.1749 65.3482 44.2947C68.4165 41.3393 70.6768 37.4924 71.7298 33.4333C72.6551 29.8663 72.6591 25.767 71.7407 22.1466C69.5586 13.5444 62.3743 6.7547 53.573 4.97685C51.3869 4.53526 49.9548 4.46281 43.3733 4.46086L37.3129 4.45911V2.22955V0L44.3407 0.0520748C51.6128 0.105964 52.1902 0.13914 54.6689 0.645483C59.7467 1.68278 64.6174 4.21994 68.2986 7.74521C73.0006 12.248 75.8673 17.979 76.7028 24.5465C76.9006 26.1014 76.8755 29.8131 76.6566 31.3789C75.447 40.0316 70.5599 47.371 63.1422 51.6745C59.9296 53.5383 56.0698 54.818 52.2789 55.276C50.9972 55.4308 49.1025 55.4497 38.1096 55.4167C26.3794 55.3815 25.3553 55.3632 24.5663 55.1745C19.0341 53.8516 14.8446 50.6916 12.4089 46.0048C11.6125 44.4723 11.1439 43.1936 10.7753 41.5474C10.5444 40.5161 10.5108 40.0624 10.5108 37.976C10.5108 35.8897 10.5444 35.4359 10.7753 34.4046C12.1702 28.1745 16.6485 23.2347 22.6315 21.3265C25.148 20.5239 24.1284 20.5776 37.6247 20.5366C51.2157 20.4952 50.4176 20.4542 52.1082 21.2795C53.2532 21.8385 54.6214 23.1852 55.2191 24.3416C56.7351 27.2745 56.2353 30.6107 53.9341 32.9193C53.0113 33.8452 52.256 34.3307 51.0839 34.7514L50.3441 35.017L38.9063 35.0739C27.6079 35.1301 27.4621 35.1337 26.955 35.3684C25.4144 36.0816 24.7981 37.8264 25.567 39.2982C25.9287 39.9907 26.6319 40.5851 27.3033 40.7659C27.6136 40.8494 31.3352 40.8755 39.22 40.8494C50.6331 40.8116 50.69 40.8103 51.6529 40.5591C54.4222 39.8367 56.5959 38.5798 58.4478 36.6302C60.7923 34.1621 62.0096 31.1407 62.0096 27.7901C62.0096 21.3078 57.2231 15.8366 50.6981 14.8607C49.7458 14.7182 47.7218 14.6982 37.5531 14.7308C24.4457 14.7727 25.0386 14.745 22.2754 15.4454C17.112 16.7543 12.4709 19.829 9.14382 24.145C5.96285 28.2715 4.24452 33.6606 4.46162 38.8296C4.60421 42.2244 5.29283 44.9684 6.7618 47.9951C9.74252 54.1369 15.4891 58.8472 22.0281 60.5085C24.6623 61.1778 24.516 61.1677 32.3338 61.2176L39.5891 61.2638V63.4762V65.6887L32.7321 65.6704C28.9607 65.6604 25.6958 65.6347 25.4767 65.6133V65.6132Z" fill="#5949A7"/>
</svg>
