<svg width="64" height="64" viewBox="0 0 64 64" fill="none" xmlns="http://www.w3.org/2000/svg">
<path d="M22.2014 55.9235C21.8519 55.8919 21.3277 55.8161 21.0365 55.755C20.7452 55.694 20.1416 55.569 19.695 55.4773C18.5687 55.246 16.9592 54.7214 15.953 54.2576C15.1337 53.88 14.3602 53.4965 14.2586 53.4176C14.2003 53.3724 14.0099 53.2591 13.8354 53.1659C13.6608 53.0727 13.4861 52.9715 13.447 52.9411C13.408 52.9108 13.1536 52.7402 12.8818 52.5621C11.1815 51.4481 9.38725 49.7642 8.06513 48.0417C7.67756 47.5368 7.19827 46.8598 7.19827 46.8173C7.19827 46.7916 7.15001 46.7085 7.09103 46.6326C6.88735 46.3704 6.47606 45.6438 6.09276 44.8691C5.88122 44.4415 5.66626 44.0122 5.61507 43.915C5.56389 43.8178 5.48177 43.6111 5.4326 43.4557C5.38343 43.3002 5.28588 43.0458 5.21583 42.8903C5.14579 42.7348 5.01866 42.3691 4.93333 42.0775C4.848 41.786 4.75529 41.5157 4.72731 41.4768C4.69932 41.438 4.65368 41.2949 4.62587 41.1588C4.59807 41.0228 4.4958 40.5457 4.39862 40.0987C4.0373 38.4369 4.00316 38.0675 4.00012 35.7877C3.99795 34.1465 4.0241 33.4636 4.10979 32.9255C4.252 32.0324 4.63027 30.285 4.72174 30.0986C4.75989 30.0209 4.85724 29.7188 4.93806 29.4272C5.01889 29.1357 5.12749 28.8177 5.1794 28.7205C5.23131 28.6233 5.31315 28.4166 5.36128 28.2611C5.45388 27.962 6.46042 25.8887 6.71655 25.4696C7.72523 23.8189 8.91406 22.3263 10.179 21.1223C10.5764 20.7441 11.0135 20.3521 11.1503 20.2512C11.2872 20.1502 11.5739 19.9231 11.7875 19.7465C12.152 19.4451 12.5157 19.1909 13.2701 18.7106C14.2685 18.075 15.9272 17.2479 16.8709 16.9149C17.1233 16.8259 17.3616 16.73 17.4004 16.7019C17.4392 16.6738 17.7252 16.5816 18.0358 16.497C18.3465 16.4123 18.7277 16.2987 18.8831 16.2444C19.0384 16.1901 19.5308 16.0781 19.9774 15.9956C20.424 15.9131 20.8529 15.8178 20.9306 15.784C21.4178 15.5714 22.8411 15.5402 31.9446 15.5421C41.9653 15.5442 41.2699 15.5182 42.936 15.9519C44.0326 16.2372 45.3875 16.8183 46.2834 17.3873C47.2851 18.0235 47.2781 18.0183 48.2126 18.8351C49.5531 20.0069 50.899 21.9146 51.5073 23.5052C51.6158 23.7888 51.7269 24.0526 51.7543 24.0915C51.8177 24.1814 52.157 25.4817 52.2984 26.1763C52.4509 26.926 52.4494 29.6789 52.296 30.4166C52.1121 31.3013 51.8557 32.1851 51.5886 32.8548C51.3218 33.5238 50.8766 34.4655 50.7596 34.6082C50.7217 34.6544 50.5259 34.9467 50.3246 35.2577C48.894 37.4674 46.5832 39.3044 44.053 40.2433C43.1181 40.5902 41.7455 40.9237 40.8759 41.0152C39.9722 41.1102 24.1176 41.1116 23.5336 41.0166C22.9677 40.9247 22.0283 40.5419 21.4904 40.1841C20.8918 39.7858 20.1153 38.9286 19.766 38.2806C19.4236 37.6451 19.121 36.4867 19.1148 35.7872C19.1055 34.7522 19.5662 33.3895 20.2099 32.5479C20.7564 31.8336 21.7631 31.0732 22.4838 30.8304C22.6391 30.7781 22.7821 30.7166 22.8015 30.6938C22.8209 30.6709 23.0274 30.608 23.2604 30.554C23.6041 30.4743 25.2514 30.4487 31.9902 30.4185C39.7712 30.3836 40.3049 30.3734 40.4328 30.2575C40.5078 30.1895 40.5992 30.1338 40.6359 30.1338C40.7893 30.1338 41.2309 29.6828 41.448 29.3042C41.661 28.9329 41.6818 28.8443 41.6845 28.2964C41.6872 27.7389 41.6702 27.666 41.4477 27.2826C41.1795 26.8206 40.6499 26.3602 40.2536 26.2446C40.0723 26.1916 37.3686 26.1754 31.3444 26.1912C23.633 26.2114 22.6573 26.2261 22.3426 26.3274C22.1484 26.3899 21.7188 26.5223 21.388 26.6216C20.7198 26.8222 19.4585 27.443 18.8957 27.8482C17.5385 28.8255 16.2933 30.2607 15.7078 31.5227C15.6023 31.75 15.455 32.0677 15.3803 32.2288C15.3057 32.3898 15.1773 32.8032 15.0949 33.1475C15.0126 33.4918 14.9182 33.8281 14.8851 33.8948C14.8521 33.9616 14.7884 34.4027 14.7436 34.8751C14.6608 35.7477 14.7417 37.3216 14.8842 37.6082C14.9178 37.6758 15.0126 38.0128 15.0949 38.3571C15.1773 38.7013 15.3057 39.1148 15.3803 39.2758C15.455 39.4368 15.6023 39.7545 15.7078 39.9818C16.1498 40.9345 17.0914 42.1464 18.0164 42.9529C19.3659 44.1296 20.7918 44.815 22.7662 45.2358C23.1874 45.3256 24.5646 45.3428 32.0858 45.3524C40.9484 45.3637 41.7652 45.3452 42.535 45.1147C42.6515 45.0798 43.14 44.9683 43.6205 44.8669C44.101 44.7655 44.5458 44.654 44.6089 44.619C44.6721 44.584 44.9302 44.4935 45.1826 44.4179C46.1774 44.1198 47.8475 43.3263 48.8187 42.6903C50.3891 41.662 51.7825 40.468 52.7194 39.348C53.1555 38.8266 53.9027 37.8518 54.0433 37.6207C54.121 37.4931 54.2851 37.2272 54.4081 37.0298C54.7436 36.4913 55.241 35.5726 55.3486 35.2929C55.4009 35.1569 55.4712 35.0092 55.5048 34.9648C55.5384 34.9204 55.6534 34.6342 55.7602 34.3288C55.8671 34.0234 55.9778 33.7358 56.0062 33.6898C56.0515 33.6167 56.3704 32.4868 56.5529 31.7526C56.9204 30.2749 56.938 26.7618 56.5865 25.0455C56.4305 24.2838 56.0683 22.9201 55.9984 22.8316C55.9624 22.7859 55.8768 22.5737 55.8082 22.3599C55.6491 21.8645 55.0045 20.4933 54.6288 19.8511C53.9364 18.6675 52.9016 17.3086 51.9942 16.3912C51.6721 16.0655 50.5683 15.0757 50.3589 14.9248C49.0139 13.9552 48.4582 13.6013 47.5831 13.1567C46.4039 12.5577 46.0167 12.3884 45.3471 12.1795C45.0819 12.0967 44.7696 11.9872 44.6531 11.936C44.4436 11.8441 43.4984 11.6227 42.5277 11.4382C41.5305 11.2488 39.9851 11.1943 35.5983 11.194L31.1326 11.1939V9.59693V8L36.3396 8.03693C40.4305 8.06594 41.7054 8.09656 42.2879 8.17975C43.1844 8.3078 45.1057 8.6976 45.2541 8.78152C45.3128 8.81475 45.6623 8.92868 46.0307 9.0347C46.3991 9.14072 46.7323 9.25226 46.7712 9.28257C46.81 9.31288 47.0038 9.39055 47.2017 9.45517C47.6342 9.59631 48.8482 10.1381 49.0957 10.3005C49.193 10.3643 49.2948 10.4165 49.3218 10.4165C49.413 10.4165 51.0753 11.4175 51.2916 11.6026C51.3314 11.6367 51.4585 11.7253 51.574 11.7995C52.9151 12.6617 55.214 14.9153 56.1304 16.2661C56.243 16.4321 56.3686 16.6071 56.4096 16.6548C56.551 16.8197 57.3305 18.077 57.5807 18.5438C57.6745 18.7187 57.7818 18.9095 57.8192 18.9678C58.0819 19.3774 58.8792 21.3087 59.0252 21.8891C59.0708 22.0704 59.1325 22.2187 59.1624 22.2187C59.1922 22.2187 59.2319 22.3062 59.2507 22.4131C59.3356 22.8968 59.6013 24.0345 59.6592 24.1622C59.957 24.8193 60.1105 28.8973 59.9079 30.7718C59.8429 31.3733 59.7616 31.9768 59.7273 32.1128C59.6929 32.2489 59.5852 32.6985 59.4878 33.1121C59.2933 33.9386 58.8697 35.2464 58.5296 36.0705C58.2567 36.7316 57.5556 38.1427 57.3448 38.4551C57.2578 38.5839 57.1377 38.784 57.0779 38.8999C56.975 39.0989 56.0525 40.4359 55.8605 40.664C55.8114 40.7224 55.5749 41.0061 55.335 41.2944C54.403 42.4145 53.01 43.7512 52.1452 44.3553C52.0242 44.4398 51.9093 44.5274 51.8899 44.5498C51.8247 44.6253 50.3758 45.5728 50.0189 45.7734C49.8247 45.8826 49.2687 46.1628 48.7833 46.3962C48.298 46.6295 47.8214 46.8622 47.7243 46.9133C47.6272 46.9644 47.3731 47.0618 47.1595 47.1299C46.9459 47.1979 46.6758 47.2966 46.5594 47.3491C46.1581 47.5301 44.5805 47.9572 43.6646 48.1328C41.7201 48.5055 41.9619 48.4976 32.2975 48.5032C23.6273 48.5082 22.2629 48.4815 21.8483 48.299C21.7706 48.2649 21.4688 48.1824 21.1776 48.1157C20.6622 47.9977 19.1302 47.4654 19.0595 47.3798C19.0401 47.3563 18.8194 47.2463 18.569 47.1353C18.3187 47.0244 18.0804 46.9062 18.0395 46.8728C17.9986 46.8394 17.7107 46.6453 17.3997 46.4413C17.0886 46.2374 16.6597 45.9401 16.4465 45.7806C14.7722 44.5281 13.0739 42.2293 12.3864 40.2849C12.2884 40.0076 12.179 39.7171 12.1435 39.6394C12.0737 39.4868 11.8956 38.7539 11.8172 38.2966C11.7906 38.1412 11.7433 37.9643 11.7122 37.9037C11.681 37.8431 11.6183 37.3311 11.5727 36.766C11.4886 35.7221 11.5726 33.8784 11.7167 33.6058C11.7501 33.5426 11.8292 33.2111 11.8926 32.8691C12.2673 30.8461 13.5935 28.4578 15.2776 26.7729C16.5124 25.5375 18.2052 24.4117 19.589 23.9055C19.822 23.8202 20.0447 23.7263 20.084 23.6967C20.2135 23.5991 21.8365 23.1952 22.4837 23.0995C23.3373 22.9732 40.0979 22.9519 40.6774 23.0763C40.8827 23.1203 41.2905 23.2576 41.5835 23.3813C43.0607 24.005 44.1062 25.1485 44.6234 26.7064C44.8381 27.3532 44.8582 27.488 44.8602 28.2965C44.8623 29.1152 44.8451 29.2317 44.625 29.8866C44.3671 30.6542 44.1966 30.9695 43.6816 31.6305C43.1464 32.3175 42.1808 33.024 41.4759 33.2444C41.3206 33.2929 41.1618 33.3557 41.1229 33.3839C41.0841 33.4121 40.9729 33.4623 40.8758 33.4954C40.7787 33.5285 36.9185 33.5729 32.2975 33.594L23.8958 33.6323L23.5487 33.8032C22.8044 34.17 22.293 34.9612 22.2889 35.7524C22.2865 36.2172 22.5253 36.8591 22.8182 37.1752C23.0805 37.4583 23.5649 37.7613 23.8814 37.8403C24.0828 37.8905 26.8675 37.9064 32.5446 37.8898C39.8859 37.8682 40.963 37.8515 41.3347 37.7537C42.4795 37.4524 42.9109 37.3194 43.2378 37.167C43.4337 37.0756 43.7052 36.9512 43.8411 36.8904C44.1088 36.7709 44.1308 36.7579 44.8649 36.2883C45.5143 35.8729 45.7903 35.6484 46.4414 35.0062C47.0405 34.4152 47.206 34.2278 47.4032 33.9168C47.4765 33.8012 47.5905 33.6485 47.6566 33.5776C47.7226 33.5066 47.8332 33.323 47.9024 33.1694C47.9716 33.0158 48.0512 32.8902 48.0795 32.8902C48.1077 32.8902 48.172 32.7869 48.2225 32.6605C48.2729 32.5342 48.4156 32.2082 48.5396 31.9361C48.6636 31.664 48.8051 31.2665 48.854 31.0527C48.903 30.8389 48.9684 30.6316 48.9995 30.5921C49.2361 30.2903 49.3333 27.5676 49.1446 26.5297C49.0916 26.2382 49.0283 25.9838 49.004 25.9643C48.9797 25.9449 48.9038 25.7064 48.8353 25.4343C48.6859 24.8411 48.1481 23.7249 47.6619 22.9987C46.9345 21.9126 45.5605 20.601 44.6178 20.0931C44.443 19.9989 44.2831 19.8993 44.2623 19.8716C44.2415 19.844 44.0985 19.7691 43.9446 19.7053C43.7906 19.6414 43.5058 19.5149 43.3116 19.4241C43.1175 19.3333 42.7521 19.2064 42.4997 19.1421C42.2473 19.0777 41.9823 18.9942 41.9108 18.9565C41.8394 18.9188 41.4203 18.8409 40.9796 18.7835C40.2998 18.6948 38.8426 18.6829 31.3664 18.7049C22.6787 18.7304 21.7875 18.7533 21.2835 18.9642C21.2058 18.9967 20.7928 19.0928 20.3656 19.1777C19.9385 19.2627 19.4937 19.3757 19.3772 19.4288C19.2607 19.4819 18.9794 19.578 18.7521 19.6424C17.8431 19.8999 15.215 21.2267 14.5455 21.7661C14.4847 21.8151 14.2126 22.0219 13.9408 22.2258C13.4161 22.6192 12.6554 23.271 12.1758 23.7382C11.803 24.1012 10.5716 25.5301 10.4023 25.796C10.331 25.908 10.2545 26.0156 10.2323 26.035C10.1876 26.0741 9.6369 26.9183 9.40239 27.3071C9.32034 27.4432 9.07467 27.9202 8.85645 28.3672C8.63823 28.8142 8.41831 29.2594 8.36773 29.3566C8.31716 29.4538 8.20634 29.7559 8.12147 30.028C8.0366 30.3001 7.93723 30.5777 7.90064 30.645C7.80278 30.8249 7.3559 32.6945 7.25417 33.3496C7.20076 33.6935 7.16612 34.6484 7.16572 35.7878C7.16507 37.6312 7.22206 38.3239 7.44184 39.1447C7.49388 39.339 7.60822 39.8081 7.69593 40.1871C7.78364 40.5661 7.87626 40.8762 7.90175 40.8762C7.92725 40.8762 7.99045 41.0431 8.04221 41.2472C8.14437 41.6499 8.54607 42.6139 8.92208 43.3585C9.21368 43.936 10.1283 45.4667 10.226 45.5405C10.2516 45.56 10.331 45.6675 10.4023 45.7796C10.5757 46.0519 11.8149 47.4932 12.1338 47.7935C12.7937 48.4148 13.4908 49.0142 13.9408 49.3472C14.2126 49.5484 14.4676 49.7388 14.5074 49.7703C14.5473 49.8018 14.6743 49.8862 14.7898 49.9578C14.9053 50.0295 15.164 50.1939 15.3648 50.3232C15.5655 50.4525 15.7618 50.5583 15.801 50.5583C15.8402 50.5583 15.9162 50.6023 15.97 50.656C16.0624 50.7486 17.5201 51.477 17.6128 51.477C17.6368 51.477 17.8212 51.5512 18.0226 51.6419C18.224 51.7325 18.5953 51.8632 18.8477 51.9321C19.1001 52.0011 19.3384 52.0824 19.3772 52.1127C19.416 52.143 19.7655 52.2363 20.1538 52.32C20.5421 52.4036 20.9559 52.5021 21.0734 52.5387C21.7203 52.7406 22.3822 52.7672 27.5142 52.7973L32.8271 52.8286V54.4143V56L27.8319 55.9905C25.0846 55.9852 22.5508 55.9551 22.2013 55.9235L22.2014 55.9235Z" fill="white"/>
</svg>
