<svg width="323" height="291" viewBox="0 0 323 291" fill="none" xmlns="http://www.w3.org/2000/svg">
<path d="M101.984 266.339C100.025 266.17 97.0881 265.763 95.4563 265.435C93.8245 265.107 90.4422 264.437 87.9401 263.944C81.6294 262.703 72.611 259.887 66.9736 257.397C62.3829 255.37 58.0486 253.311 57.4794 252.888C57.153 252.646 56.0859 252.037 55.1081 251.537C54.1302 251.037 53.1511 250.494 52.9323 250.331C52.7135 250.167 51.2884 249.252 49.7653 248.296C40.2384 242.316 30.1851 233.277 22.7772 224.031C20.6056 221.321 17.9201 217.687 17.9201 217.459C17.9201 217.321 17.6497 216.875 17.3192 216.467C16.178 215.06 13.8735 211.16 11.7259 207.001C10.5406 204.706 9.33616 202.401 9.04935 201.88C8.76255 201.358 8.30246 200.249 8.02694 199.414C7.75142 198.579 7.20487 197.214 6.81239 196.379C6.41991 195.545 5.70761 193.581 5.22951 192.017C4.7514 190.452 4.23194 189.001 4.07515 188.792C3.91836 188.583 3.6626 187.815 3.50681 187.085C3.35102 186.355 2.77802 183.794 2.23348 181.395C0.209021 172.474 0.0177082 170.491 0.000688077 158.254C-0.0114585 149.444 0.135016 145.778 0.615134 142.89C1.41197 138.096 3.53144 128.716 4.04397 127.716C4.25774 127.298 4.80316 125.677 5.25603 124.112C5.7089 122.547 6.31739 120.84 6.60824 120.318C6.89908 119.796 7.35767 118.687 7.62732 117.852C8.14615 116.246 13.7859 105.118 15.221 102.868C20.8727 94.0071 27.5338 85.9951 34.6216 79.5323C36.848 77.5023 39.297 75.398 40.0637 74.8561C40.8305 74.3142 42.437 73.0952 43.6336 72.1471C45.6759 70.529 47.7141 69.1647 51.9411 66.5868C57.5352 63.175 66.8288 58.7348 72.1163 56.9477C73.5306 56.4698 74.8657 55.9552 75.0833 55.8043C75.3009 55.6534 76.903 55.1583 78.6436 54.704C80.3842 54.2498 82.5204 53.6397 83.3907 53.3482C84.261 53.0568 87.0203 52.4558 89.5224 52.0128C92.0245 51.5698 94.4278 51.0586 94.8629 50.8767C97.5928 49.7359 105.568 49.5682 156.575 49.5784C212.722 49.5897 208.826 49.4505 218.161 51.778C224.305 53.3099 231.897 56.4288 236.916 59.483C242.529 62.8983 242.49 62.8702 247.726 67.255C255.237 73.5447 262.778 83.785 266.187 92.3234C266.794 93.8455 267.417 95.2616 267.57 95.4702C267.925 95.9527 269.827 102.933 270.619 106.661C271.474 110.685 271.465 125.462 270.605 129.423C269.575 134.171 268.138 138.915 266.642 142.51C265.147 146.101 262.652 151.156 261.997 151.922C261.784 152.17 260.688 153.739 259.56 155.409C251.544 167.27 238.596 177.13 224.419 182.171C219.181 184.033 211.49 185.823 206.618 186.314C201.555 186.824 112.72 186.832 109.448 186.322C106.277 185.828 101.014 183.773 98 181.853C94.6457 179.715 90.2948 175.114 88.338 171.635C86.4195 168.224 84.7241 162.006 84.689 158.251C84.6371 152.695 87.2185 145.38 90.8252 140.863C93.887 137.029 99.5276 132.947 103.566 131.644C104.436 131.363 105.237 131.033 105.346 130.91C105.455 130.788 106.612 130.45 107.917 130.16C109.843 129.732 119.073 129.595 156.831 129.433C200.428 129.245 203.419 129.19 204.135 128.569C204.556 128.203 205.068 127.905 205.273 127.905C206.133 127.905 208.607 125.484 209.824 123.451C211.017 121.458 211.134 120.983 211.149 118.041C211.164 115.049 211.069 114.657 209.822 112.6C208.319 110.12 205.351 107.648 203.131 107.028C202.115 106.744 186.966 106.657 153.213 106.741C110.005 106.849 104.538 106.929 102.775 107.472C101.687 107.808 99.2797 108.519 97.4258 109.052C93.6822 110.128 86.6151 113.46 83.4616 115.636C75.8568 120.881 68.8801 128.585 65.5995 135.36C65.0086 136.58 64.183 138.285 63.7647 139.15C63.3465 140.014 62.6268 142.234 62.1656 144.082C61.7043 145.93 61.1754 147.735 60.9901 148.093C60.8048 148.451 60.4479 150.819 60.1968 153.355C59.7331 158.039 60.1867 166.488 60.9846 168.026C61.1729 168.389 61.7043 170.198 62.1656 172.046C62.6268 173.894 63.3465 176.113 63.7647 176.977C64.183 177.842 65.0086 179.547 65.5995 180.767C68.076 185.881 73.3518 192.386 78.5345 196.715C86.0958 203.032 94.0853 206.711 105.148 208.97C107.508 209.451 115.225 209.544 157.366 209.596C207.024 209.656 211.601 209.557 215.914 208.319C216.567 208.132 219.304 207.534 221.996 206.989C224.688 206.445 227.18 205.846 227.534 205.659C227.888 205.471 229.335 204.985 230.749 204.579C236.323 202.979 245.68 198.719 251.122 195.306C259.921 189.786 267.728 183.377 272.978 177.365C275.421 174.566 279.608 169.333 280.396 168.093C280.831 167.408 281.751 165.981 282.44 164.921C284.319 162.031 287.107 157.099 287.709 155.598C288.003 154.867 288.396 154.075 288.585 153.837C288.773 153.598 289.417 152.062 290.016 150.422C290.614 148.783 291.235 147.24 291.394 146.993C291.648 146.6 293.435 140.535 294.457 136.594C296.516 128.662 296.615 109.804 294.645 100.591C293.771 96.5027 291.742 89.1824 291.35 88.7072C291.149 88.4623 290.669 87.323 290.284 86.1754C289.393 83.5161 285.782 76.1559 283.676 72.7083C279.797 66.3553 273.999 59.0608 268.914 54.1363C267.11 52.3883 260.925 47.0752 259.752 46.2648C252.216 41.0603 249.102 39.1604 244.199 36.7742C237.591 33.5585 235.422 32.6502 231.67 31.5286C230.184 31.0843 228.435 30.4963 227.782 30.2218C226.608 29.728 221.312 28.5397 215.873 27.5496C210.286 26.5325 201.627 26.2401 177.047 26.2386L152.026 26.2379V17.6658V9.09375L181.201 9.29198C204.122 9.44773 211.266 9.61205 214.529 10.0586C219.552 10.746 230.318 12.8384 231.149 13.2888C231.478 13.4672 233.437 14.0787 235.501 14.6478C237.565 15.2169 239.432 15.8157 239.649 15.9784C239.867 16.1411 240.953 16.558 242.062 16.9049C244.485 17.6625 251.287 20.571 252.674 21.4423C253.219 21.7848 253.789 22.065 253.941 22.065C254.452 22.065 263.766 27.4381 264.978 28.4317C265.201 28.6148 265.913 29.0906 266.56 29.4891C274.074 34.1171 286.955 46.2141 292.09 53.4649C292.721 54.3562 293.425 55.2951 293.654 55.5514C294.446 56.4364 298.814 63.1854 300.216 65.691C300.741 66.6299 301.343 67.6541 301.552 67.9671C303.024 70.166 307.492 80.5327 308.31 83.6481C308.565 84.6213 308.911 85.4175 309.078 85.4175C309.245 85.4175 309.468 85.887 309.573 86.4607C310.049 89.0572 311.537 95.1643 311.862 95.8498C313.531 99.3772 314.391 121.267 313.256 131.329C312.891 134.558 312.436 137.797 312.243 138.527C312.051 139.258 311.447 141.671 310.902 143.891C309.812 148.328 307.438 155.348 305.533 159.771C304.004 163.32 300.075 170.895 298.894 172.572C298.407 173.263 297.734 174.337 297.399 174.959C296.822 176.028 291.653 183.204 290.577 184.429C290.302 184.742 288.977 186.265 287.633 187.813C282.411 193.825 274.606 201 269.76 204.243C269.082 204.697 268.439 205.167 268.33 205.287C267.965 205.692 259.847 210.779 257.847 211.856C256.759 212.441 253.644 213.945 250.924 215.198C248.204 216.451 245.534 217.7 244.99 217.974C244.446 218.248 243.022 218.771 241.825 219.137C240.629 219.502 239.115 220.031 238.463 220.314C236.215 221.285 227.375 223.578 222.243 224.52C211.348 226.521 212.703 226.478 158.553 226.508C109.973 226.535 102.328 226.392 100.005 225.413C99.5699 225.229 97.8788 224.786 96.2469 224.428C93.3593 223.795 84.7755 220.938 84.3792 220.478C84.2704 220.352 83.0337 219.762 81.6311 219.166C80.2284 218.57 78.8933 217.936 78.6641 217.757C78.435 217.578 76.8217 216.535 75.0791 215.441C73.3364 214.346 70.9332 212.75 69.7386 211.894C60.3573 205.171 50.8414 192.831 46.9894 182.394C46.4401 180.905 45.8277 179.346 45.6285 178.929C45.2373 178.11 44.2395 174.176 43.8004 171.721C43.6511 170.887 43.3862 169.937 43.2118 169.612C43.0373 169.287 42.6858 166.538 42.4305 163.505C41.9589 157.902 42.4297 148.005 43.2371 146.541C43.4242 146.202 43.8677 144.423 44.2227 142.587C46.3223 131.728 53.7529 118.908 63.1893 109.863C70.1077 103.232 79.5924 97.189 87.3461 94.4716C88.6516 94.0141 89.8996 93.5099 90.1194 93.3512C90.8451 92.8273 99.9388 90.6591 103.565 90.1453C108.348 89.4677 202.259 89.3529 205.506 90.0207C206.656 90.2573 208.941 90.9942 210.583 91.6582C218.86 95.0058 224.718 101.144 227.615 109.507C228.818 112.979 228.931 113.702 228.942 118.042C228.954 122.437 228.857 123.062 227.624 126.578C226.18 130.698 225.224 132.39 222.339 135.938C219.34 139.626 213.929 143.419 209.98 144.601C209.11 144.862 208.22 145.199 208.002 145.351C207.784 145.502 207.161 145.771 206.617 145.949C206.073 146.127 184.444 146.365 158.553 146.478L111.477 146.684L109.533 147.601C105.362 149.57 102.497 153.817 102.474 158.064C102.461 160.559 103.798 164.005 105.44 165.701C106.909 167.221 109.623 168.847 111.397 169.271C112.525 169.541 128.128 169.627 159.937 169.537C201.071 169.421 207.106 169.332 209.189 168.807C215.603 167.189 218.02 166.475 219.852 165.657C220.949 165.167 222.471 164.499 223.232 164.173C224.732 163.531 224.855 163.462 228.968 160.941C232.607 158.711 234.154 157.506 237.802 154.059C241.159 150.886 242.086 149.88 243.191 148.211C243.602 147.59 244.24 146.771 244.61 146.39C244.98 146.009 245.6 145.023 245.988 144.199C246.375 143.375 246.822 142.7 246.98 142.7C247.138 142.7 247.499 142.146 247.781 141.467C248.064 140.789 248.863 139.04 249.558 137.579C250.253 136.119 251.046 133.985 251.32 132.837C251.594 131.69 251.961 130.577 252.135 130.364C253.46 128.745 254.005 114.13 252.948 108.558C252.651 106.993 252.296 105.628 252.16 105.523C252.024 105.419 251.599 104.139 251.215 102.678C250.378 99.4942 247.365 93.5023 244.64 89.6044C240.565 83.7741 232.866 76.7339 227.584 74.0073C226.605 73.5019 225.708 72.967 225.592 72.8186C225.476 72.6702 224.675 72.2684 223.812 71.9257C222.949 71.583 221.353 70.9039 220.265 70.4166C219.177 69.9292 217.13 69.2479 215.716 68.9026C214.302 68.5572 212.817 68.109 212.417 67.9066C212.016 67.7042 209.668 67.2861 207.199 66.9776C203.39 66.5016 195.225 66.4377 153.335 66.5557C104.658 66.6929 99.6646 66.8159 96.8403 67.9476C96.4052 68.122 94.091 68.6379 91.6976 69.0941C89.3043 69.5502 86.812 70.1566 86.1593 70.4416C85.5066 70.7266 83.9305 71.2426 82.6568 71.5883C77.5637 72.9706 62.8384 80.0926 59.0868 82.9882C58.7464 83.251 57.2217 84.3612 55.6987 85.4554C52.759 87.5673 48.4969 91.0662 45.8095 93.5737C43.7208 95.5226 36.8209 103.193 35.8727 104.62C35.473 105.221 35.0442 105.798 34.9198 105.903C34.6697 106.112 31.5839 110.644 30.2699 112.731C29.8102 113.461 28.4337 116.022 27.211 118.422C25.9883 120.821 24.756 123.211 24.4727 123.733C24.1893 124.254 23.5684 125.876 23.0929 127.336C22.6173 128.797 22.0605 130.287 21.8555 130.648C21.3072 131.614 18.8033 141.65 18.2333 145.166C17.9341 147.013 17.74 152.138 17.7377 158.254C17.7341 168.149 18.0534 171.868 19.2848 176.273C19.5764 177.317 20.2171 179.835 20.7085 181.869C21.2 183.903 21.7189 185.568 21.8618 185.568C22.0046 185.568 22.3588 186.464 22.6488 187.559C23.2211 189.721 25.4719 194.895 27.5787 198.892C29.2126 201.992 34.3375 210.209 34.8844 210.605C35.0284 210.71 35.473 211.287 35.8727 211.888C36.8439 213.35 43.7874 221.087 45.5743 222.699C49.2715 226.034 53.1773 229.251 55.6987 231.039C57.2217 232.119 58.6505 233.141 58.8737 233.31C59.0969 233.479 59.809 233.932 60.4561 234.317C61.1031 234.701 62.5528 235.584 63.6776 236.278C64.8023 236.972 65.9022 237.54 66.1218 237.54C66.3413 237.54 66.7673 237.776 67.0684 238.065C67.5865 238.561 75.7538 242.471 76.2735 242.471C76.408 242.471 77.4412 242.869 78.5695 243.356C79.6978 243.843 81.7781 244.544 83.1924 244.914C84.6066 245.285 85.9417 245.721 86.1593 245.883C86.3769 246.046 88.3351 246.547 90.5109 246.996C92.6866 247.445 95.0051 247.974 95.6631 248.17C99.2879 249.254 102.997 249.397 131.751 249.559L161.52 249.726V258.238V266.75L133.532 266.699C118.138 266.671 103.941 266.509 101.983 266.339L101.984 266.339Z" fill="#1D4ED8"/>
</svg>
